<svg viewBox="0 0 18.75 18.75" fill="none" xmlns="http://www.w3.org/2000/svg" xmlns:xlink="http://www.w3.org/1999/xlink" x="0" y="0"><path id="Vector_17" d="M17.995,-0.005h-17.24c-0.42,0 -0.76,0.34 -0.76,0.76v17.24c0,0.42 0.34,0.76 0.76,0.76h17.24c0.42,0 0.76,-0.34 0.76,-0.76v-17.24c0,-0.42 -0.34,-0.76 -0.76,-0.76zM15.835,5.475h-1.5c-1.17,0 -1.4,0.56 -1.4,1.38v1.8h2.8l-0.36,2.83h-2.44v7.27h-2.92v-7.27h-2.45v-2.83h2.45v-2.08c0,-2.42 1.48,-3.74 3.64,-3.74c1.03,0 1.92,0.07 2.18,0.11v2.53z" fill="currentColor" fill-opacity="0.59"/></svg>