<svg viewBox="0 0 21.0009 21" fill="none" xmlns="http://www.w3.org/2000/svg" xmlns:xlink="http://www.w3.org/1999/xlink" x="0" y="0"><path id="Vector_18" d="M10.5,7.01c-1.93,0 -3.49,1.57 -3.49,3.49c0,1.92 1.57,3.49 3.49,3.49c1.92,0 3.49,-1.57 3.49,-3.49c0,-1.92 -1.57,-3.49 -3.49,-3.49zM21,10.5c0,-1.45 0,-2.88 -0.08,-4.34c-0.07,-1.67 -0.46,-3.17 -1.69,-4.39c-1.23,-1.23 -2.71,-1.62 -4.39,-1.7c-1.46,-0.07 -2.89,-0.07 -4.34,-0.07c-1.45,0 -2.88,0 -4.34,0.07c-1.67,0.08 -3.17,0.47 -4.39,1.7c-1.23,1.23 -1.62,2.72 -1.7,4.39c-0.07,1.46 -0.07,2.89 -0.07,4.34c0,1.45 0,2.88 0.07,4.34c0.08,1.68 0.47,3.17 1.7,4.39c1.23,1.23 2.72,1.62 4.39,1.69c1.46,0.08 2.89,0.08 4.34,0.08c1.45,0 2.88,0 4.34,-0.08c1.68,-0.07 3.17,-0.46 4.39,-1.69c1.23,-1.23 1.62,-2.71 1.69,-4.39c0.09,-1.44 0.08,-2.89 0.08,-4.34zM10.5,15.89c-2.99,0 -5.39,-2.41 -5.39,-5.39c0,-2.99 2.4,-5.39 5.39,-5.39c2.98,0 5.39,2.4 5.39,5.39c0,2.98 -2.41,5.39 -5.39,5.39zM16.11,6.15c-0.69,0 -1.26,-0.55 -1.26,-1.26c0,-0.7 0.55,-1.26 1.26,-1.26c0.71,0 1.26,0.56 1.26,1.26c0,0.16 -0.03,0.33 -0.09,0.48c-0.06,0.15 -0.15,0.29 -0.27,0.4c-0.11,0.12 -0.25,0.21 -0.41,0.28c-0.15,0.06 -0.31,0.09 -0.48,0.09z" fill="currentColor" fill-opacity="0.59"/></svg>