<svg viewBox="0 0 19.5 19.5" fill="none" xmlns="http://www.w3.org/2000/svg" xmlns:xlink="http://www.w3.org/1999/xlink" x="0" y="0"><path id="Vector_19" fill-rule="evenodd" clip-rule="evenodd" d="M16.25,0c0.86,0 1.69,0.34 2.3,0.95c0.61,0.61 0.95,1.44 0.95,2.3v13c0,0.86 -0.34,1.69 -0.95,2.3c-0.61,0.61 -1.44,0.95 -2.3,0.95h-13c-0.86,0 -1.69,-0.34 -2.3,-0.95c-0.61,-0.61 -0.95,-1.44 -0.95,-2.3v-13c0,-0.86 0.34,-1.69 0.95,-2.3c0.61,-0.61 1.44,-0.95 2.3,-0.95zM5.42,7.58c-0.29,0 -0.57,0.12 -0.77,0.32c-0.2,0.2 -0.32,0.48 -0.32,0.77v5.41c0,0.29 0.12,0.57 0.32,0.77c0.2,0.2 0.48,0.32 0.77,0.32c0.28,0 0.56,-0.12 0.76,-0.32c0.21,-0.2 0.32,-0.48 0.32,-0.77v-5.41c0,-0.29 -0.11,-0.57 -0.32,-0.77c-0.2,-0.2 -0.48,-0.32 -0.76,-0.32zM8.67,6.5c-0.29,0 -0.57,0.11 -0.77,0.32c-0.2,0.2 -0.32,0.48 -0.32,0.76v6.5c0,0.29 0.12,0.57 0.32,0.77c0.2,0.2 0.48,0.32 0.77,0.32c0.28,0 0.56,-0.12 0.76,-0.32c0.21,-0.2 0.32,-0.48 0.32,-0.77v-3.96c0.33,-0.37 0.89,-0.81 1.51,-1.08c0.36,-0.15 0.9,-0.21 1.28,-0.09c0.12,0.03 0.24,0.1 0.32,0.2c0.05,0.07 0.14,0.24 0.14,0.6v4.33c0,0.29 0.11,0.57 0.32,0.77c0.2,0.2 0.48,0.32 0.76,0.32c0.29,0 0.57,-0.12 0.77,-0.32c0.2,-0.2 0.32,-0.48 0.32,-0.77v-4.33c0,-0.73 -0.19,-1.37 -0.57,-1.89c-0.35,-0.47 -0.85,-0.81 -1.41,-0.98c-0.98,-0.31 -2.06,-0.14 -2.78,0.17c-0.23,0.1 -0.46,0.21 -0.68,0.34c-0.04,-0.25 -0.17,-0.48 -0.37,-0.64c-0.19,-0.16 -0.44,-0.25 -0.69,-0.25zM5.42,4.33c-0.29,0 -0.57,0.12 -0.77,0.32c-0.2,0.2 -0.32,0.48 -0.32,0.77c0,0.28 0.12,0.56 0.32,0.76c0.2,0.21 0.48,0.32 0.77,0.32c0.28,0 0.56,-0.11 0.76,-0.32c0.21,-0.2 0.32,-0.48 0.32,-0.76c0,-0.29 -0.11,-0.57 -0.32,-0.77c-0.2,-0.2 -0.48,-0.32 -0.76,-0.32z" fill="currentColor" fill-opacity="0.59"/></svg>