<svg viewBox="0 0 113 113" fill="none" xmlns="http://www.w3.org/2000/svg" xmlns:xlink="http://www.w3.org/1999/xlink" id="f02e0d1f" x="0" y="0"><g id="Landing Page" data-node-id="1:2" clip-path="url(#clip0_1_2)"><circle id="Ellipse 10" data-node-id="28:170" cx="56.5" cy="56.5" r="56" fill="white"/><g id="mdi:partnership" data-node-id="31:174">
<path id="Vector_3" data-node-id="31:175" d="M55.17,45.5h7l7.67,-7.7c0.22,-0.22 0.48,-0.39 0.76,-0.51c0.29,-0.12 0.59,-0.18 0.9,-0.18c0.31,0 0.61,0.06 0.9,0.18c0.28,0.12 0.54,0.29 0.76,0.51l6.02,6.04c0.43,0.44 0.68,1.03 0.68,1.65c0,0.61 -0.25,1.21 -0.68,1.64l-5.35,5.37h-18.66v4.67c0,0.62 -0.25,1.21 -0.69,1.65c-0.43,0.43 -1.03,0.68 -1.65,0.68c-0.62,0 -1.21,-0.25 -1.65,-0.68c-0.43,-0.44 -0.68,-1.03 -0.68,-1.65v-7c0,-1.24 0.49,-2.43 1.37,-3.3c0.87,-0.88 2.06,-1.37 3.3,-1.37zM41.17,57.17v9.33l-5.35,5.34c-0.43,0.44 -0.68,1.03 -0.68,1.65c0,0.61 0.25,1.21 0.68,1.64l6.02,6.05c0.22,0.22 0.48,0.39 0.76,0.51c0.29,0.12 0.59,0.18 0.9,0.18c0.31,0 0.61,-0.06 0.9,-0.18c0.28,-0.12 0.54,-0.29 0.76,-0.51l10.01,-10.01h9.33c0.62,0 1.21,-0.25 1.65,-0.69c0.44,-0.43 0.68,-1.03 0.68,-1.65v-2.33h2.34c0.62,0 1.21,-0.25 1.65,-0.68c0.43,-0.44 0.68,-1.03 0.68,-1.65v-2.34h2.33c0.62,0 1.22,-0.24 1.65,-0.68c0.44,-0.44 0.69,-1.03 0.69,-1.65v-2.33h-16.34v2.33c0,1.24 -0.49,2.42 -1.36,3.3c-0.88,0.88 -2.07,1.37 -3.3,1.37h-4.67c-1.24,0 -2.42,-0.49 -3.3,-1.37c-0.88,-0.88 -1.37,-2.06 -1.37,-3.3v-7z" fill="currentColor"/>
</g></g><defs><clipPath id="clip0_1_2">
<rect width="1440" height="6888" fill="white" x="-1179.5" y="-3415.5"/>
</clipPath></defs></svg>