<svg viewBox="0 0 21.75 14.5" fill="none" xmlns="http://www.w3.org/2000/svg" xmlns:xlink="http://www.w3.org/1999/xlink" x="0" y="0"><path id="Vector" d="M1.205,14.5h19.34c0.66,0 1.21,-0.5437 1.21,-1.2083c0,-0.6646 -0.55,-1.2084 -1.21,-1.2084h-19.34c-0.66,0 -1.21,0.5438 -1.21,1.2084c0,0.6646 0.55,1.2083 1.21,1.2083zM1.205,8.4583h19.34c0.66,0 1.21,-0.5437 1.21,-1.2083c0,-0.6646 -0.55,-1.2083 -1.21,-1.2083h-19.34c-0.66,0 -1.21,0.5437 -1.21,1.2083c0,0.6646 0.55,1.2083 1.21,1.2083zM-0.005,1.2083c0,0.6646 0.55,1.2084 1.21,1.2084h19.34c0.66,0 1.21,-0.5438 1.21,-1.2084c0,-0.6646 -0.55,-1.2083 -1.21,-1.2083h-19.34c-0.66,0 -1.21,0.5437 -1.21,1.2083z" fill="black"/></svg>