<svg viewBox="0 0 63.3299 50.0009" fill="none" xmlns="http://www.w3.org/2000/svg" xmlns:xlink="http://www.w3.org/1999/xlink" x="0" y="0"><path id="Vector_4" d="M14.7938,0.0012c6.666,-0.17 13.906,4.79 15.076,15.34l0.09,1.04l0.004,0.02c0.636,11.06 -7.08,26.19 -23.937,33.46c-0.375,0.17 -0.796,0.18 -1.184,0.06c-0.388,-0.13 -0.715,-0.4 -0.919,-0.75l-3.7,-6.4c-0.111,-0.19 -0.182,-0.4 -0.21,-0.62c-0.028,-0.22 -0.013,-0.44 0.045,-0.65c0.059,-0.22 0.159,-0.42 0.294,-0.59c0.136,-0.17 0.305,-0.32 0.497,-0.43c5.7,-3.2 10.144,-8.23 12.817,-14.34c-3.967,-0.7 -6.817,-2.34 -8.727,-4.53c-2.223,-2.55 -3.016,-5.67 -3.016,-8.39c0,-7.38 5.676,-13.35 12.866,-13.22M48.1238,0.0012c6.666,-0.17 13.906,4.79 15.076,15.34l0.09,1.04l0.004,0.02c0.636,11.06 -7.08,26.19 -23.937,33.46c-0.375,0.17 -0.796,0.18 -1.184,0.06c-0.388,-0.13 -0.715,-0.4 -0.919,-0.75l-3.7,-6.4c-0.111,-0.19 -0.182,-0.4 -0.21,-0.62c-0.028,-0.22 -0.013,-0.44 0.045,-0.65c0.059,-0.22 0.159,-0.42 0.294,-0.59c0.136,-0.17 0.305,-0.32 0.497,-0.43c5.7,-3.2 10.144,-8.23 12.817,-14.34c-3.967,-0.7 -6.817,-2.34 -8.727,-4.53c-2.223,-2.55 -3.016,-5.67 -3.016,-8.39c0,-7.38 5.683,-13.35 12.87,-13.22z" fill="currentColor"/></svg>