<svg viewBox="0 0 22 22" fill="none" xmlns="http://www.w3.org/2000/svg" xmlns:xlink="http://www.w3.org/1999/xlink" x="0" y="0"><path id="Vector_16" fill-rule="evenodd" clip-rule="evenodd" d="M4,0c-1.06,0 -2.08,0.42 -2.83,1.17c-0.75,0.75 -1.17,1.77 -1.17,2.83v14c0,1.06 0.42,2.08 1.17,2.83c0.75,0.75 1.77,1.17 2.83,1.17h14c1.06,0 2.08,-0.42 2.83,-1.17c0.75,-0.75 1.17,-1.77 1.17,-2.83v-14c0,-1.06 -0.42,-2.08 -1.17,-2.83c-0.75,-0.75 -1.77,-1.17 -2.83,-1.17zM3.67,3.5c-0.11,0.04 -0.21,0.11 -0.29,0.19c-0.08,0.09 -0.14,0.19 -0.17,0.3c-0.04,0.11 -0.04,0.23 -0.02,0.35c0.02,0.11 0.07,0.22 0.14,0.31l5.61,7.45l-5.91,6.35l-0.05,0.05h2.05l4.83,-5.18l3.71,4.93c0.09,0.11 0.21,0.2 0.34,0.25h4.42c0.11,-0.04 0.21,-0.11 0.29,-0.19c0.08,-0.09 0.14,-0.19 0.17,-0.3c0.03,-0.11 0.04,-0.23 0.02,-0.35c-0.03,-0.11 -0.07,-0.22 -0.14,-0.31l-5.62,-7.45l5.97,-6.4h-2.05l-4.83,5.18l-3.72,-4.93c-0.08,-0.11 -0.2,-0.2 -0.33,-0.25zM14.55,17.05l-9.12,-12.1h2.02l9.11,12.1z" fill="currentColor" fill-opacity="0.59"/></svg>